<svg id="Layer_1" data-name="Layer 1" xmlns="http://www.w3.org/2000/svg" viewBox="0 0 512 512"><defs><style>.cls-1{fill:#71c6c4;}.cls-2{fill:#cad8dd;}</style></defs><title>headphones-flat</title><path class="cls-1" d="M51.2,281.6H94.4a59.2,59.2,0,0,1,59.2,59.2v112A59.2,59.2,0,0,1,94.4,512H51.2a0,0,0,0,1,0,0V281.6a0,0,0,0,1,0,0Z"/><path class="cls-2" d="M437,75l-3.2-3.2h0l-.16-.17a256,256,0,0,0-351.8-3.23h0A256.9,256.9,0,0,0,0,256V480a32,32,0,0,0,32,32H51.2V281.6H25.6V256A231.25,231.25,0,0,1,90.48,95.78l6.95,6.95c15.42,15.41,39.38,17.79,56.95,5.66a179.16,179.16,0,0,1,206,2,44.07,44.07,0,0,0,25.82,8.34,45.65,45.65,0,0,0,32.29-13.53L424.66,99A228.56,228.56,0,0,1,486.4,256v25.6H460.8V512H480a32,32,0,0,0,32-32V256A254.09,254.09,0,0,0,437,75ZM400.41,87.09c-6.81,6.82-17.59,7.91-25.06,2.51a204.77,204.77,0,0,0-235.51-2.3c-7.42,5.13-17.65,4-24.31-2.68l-6.26-6.26a230.51,230.51,0,0,1,297,2.89Z"/><path class="cls-1" d="M358.4,281.6h43.2a59.2,59.2,0,0,1,59.2,59.2v112A59.2,59.2,0,0,1,401.6,512H358.4a0,0,0,0,1,0,0V281.6A0,0,0,0,1,358.4,281.6Z" transform="translate(819.2 793.6) rotate(180)"/></svg>